# Blender 3.6.5
# www.blender.org
mtllib palmtree.mtl
o Cube
v -0.140836 -0.137480 0.140836
v -0.140836 0.137480 0.140836
v -0.140836 -0.137480 -0.140836
v -0.140836 0.137480 -0.140836
v 0.140836 -0.137480 0.140836
v 0.140836 0.137480 0.140836
v 0.140836 -0.137480 -0.140836
v 0.140836 0.137480 -0.140836
v -0.117056 0.137480 0.117056
v -0.117056 0.137480 -0.117056
v 0.117056 0.137480 -0.117056
v 0.117056 0.137480 0.117056
v -0.140836 0.137480 0.140836
v -0.140836 0.137480 -0.140836
v 0.140836 0.137480 -0.140836
v 0.140836 0.137480 0.140836
v -0.094409 0.342975 0.094409
v -0.094409 0.342975 -0.094409
v 0.094409 0.342975 -0.094409
v 0.094409 0.342975 0.094409
v -0.117056 0.342975 0.117056
v -0.117056 0.342975 -0.117056
v 0.117056 0.342975 -0.117056
v 0.117056 0.342975 0.117056
v -0.075633 0.529405 0.075633
v -0.075633 0.529405 -0.075633
v 0.075633 0.529405 -0.075633
v 0.075633 0.529405 0.075633
v -0.094409 0.529405 0.094409
v -0.094409 0.529405 -0.094409
v 0.094409 0.529405 -0.094409
v 0.094409 0.529405 0.094409
v -0.075633 0.529405 0.075633
v -0.075633 0.529405 -0.075633
v 0.075633 0.529405 -0.075633
v 0.075633 0.529405 0.075633
v -0.075633 0.709961 0.075633
v -0.075633 0.709961 -0.075633
v 0.075633 0.709961 -0.075633
v 0.075633 0.709961 0.075633
v 0.069084 0.709961 -0.069084
v -0.069084 0.709961 -0.069084
v -0.069084 0.709961 0.069084
v 0.069084 0.709961 0.069084
v -0.069084 1.065752 -0.069084
v 0.069084 1.065752 -0.069084
v 0.069084 1.065752 0.069084
v -0.069084 1.065752 0.069084
v -0.069084 1.091367 -0.069084
v 0.069084 1.091367 -0.069084
v 0.069084 1.091367 0.069084
v -0.069084 1.091367 0.069084
v 0.339019 1.065752 -0.069084
v 0.339019 1.065752 0.069084
v 0.339019 1.091367 -0.069084
v 0.339019 1.091367 0.069084
v -0.069084 1.065752 -0.407380
v 0.069084 1.065752 -0.407380
v -0.069084 1.091367 -0.407380
v 0.069084 1.091367 -0.407380
v -0.365597 1.065752 0.069084
v -0.365597 1.065752 -0.069084
v -0.365597 1.091367 0.069084
v -0.365597 1.091367 -0.069084
v 0.069084 1.065752 0.363856
v -0.069084 1.065752 0.363856
v 0.069084 1.091367 0.363856
v -0.069084 1.091367 0.363856
vn -1.0000 -0.0000 -0.0000
vn -0.0000 -0.0000 -1.0000
vn 1.0000 -0.0000 -0.0000
vn -0.0000 -0.0000 1.0000
vn -0.0000 -1.0000 -0.0000
vn -0.0000 1.0000 -0.0000
vt 0.375000 0.000000
vt 0.625000 0.000000
vt 0.625000 0.250000
vt 0.375000 0.250000
vt 0.625000 0.500000
vt 0.375000 0.500000
vt 0.625000 0.750000
vt 0.375000 0.750000
vt 0.625000 1.000000
vt 0.375000 1.000000
vt 0.125000 0.500000
vt 0.125000 0.750000
vt 0.646106 0.728893
vt 0.646106 0.521107
vt 0.853894 0.728894
vt 0.853894 0.521107
vt 0.875000 0.500000
vt 0.875000 0.750000
vt 0.833793 0.541207
vt 0.833793 0.708793
vt 0.666207 0.541207
vt 0.666207 0.708793
vt 0.682871 0.692129
vt 0.682871 0.557871
vt 0.817129 0.692129
vt 0.817129 0.557871
vt 0.811316 0.686316
vt 0.688684 0.686315
vt 0.811316 0.563684
vt 0.688684 0.563684
s 0
f 1/1/1 2/2/1 4/3/1 3/4/1
f 3/4/2 4/3/2 8/5/2 7/6/2
f 7/6/3 8/5/3 6/7/3 5/8/3
f 5/8/4 6/7/4 2/9/4 1/10/4
f 3/11/5 7/6/5 5/8/5 1/12/5
f 8/5/6 4/3/6 14/3/6 15/5/6
f 12/13/3 11/14/3 23/14/3 24/13/3
f 6/7/6 8/5/6 15/5/6 16/7/6
f 4/3/6 2/2/6 13/2/6 14/3/6
f 2/9/6 6/7/6 16/7/6 13/9/6
f 9/15/6 10/16/6 14/17/6 13/18/6
f 10/16/6 11/14/6 15/5/6 14/17/6
f 11/14/6 12/13/6 16/7/6 15/5/6
f 12/13/6 9/15/6 13/18/6 16/7/6
f 18/19/1 17/20/1 29/20/1 30/19/1
f 10/16/1 9/15/1 21/15/1 22/16/1
f 9/15/4 12/13/4 24/13/4 21/15/4
f 11/14/2 10/16/2 22/16/2 23/14/2
f 17/20/6 18/19/6 22/16/6 21/15/6
f 18/19/6 19/21/6 23/14/6 22/16/6
f 19/21/6 20/22/6 24/13/6 23/14/6
f 20/22/6 17/20/6 21/15/6 24/13/6
f 28/23/6 27/24/6 35/24/6 36/23/6
f 17/20/4 20/22/4 32/22/4 29/20/4
f 19/21/2 18/19/2 30/19/2 31/21/2
f 20/22/3 19/21/3 31/21/3 32/22/3
f 25/25/6 26/26/6 30/19/6 29/20/6
f 26/26/6 27/24/6 31/21/6 30/19/6
f 27/24/6 28/23/6 32/22/6 31/21/6
f 28/23/6 25/25/6 29/20/6 32/22/6
f 34/26/1 33/25/1 37/25/1 38/26/1
f 26/26/6 25/25/6 33/25/6 34/26/6
f 25/25/6 28/23/6 36/23/6 33/25/6
f 27/24/6 26/26/6 34/26/6 35/24/6
f 43/27/4 44/28/4 47/28/4 48/27/4
f 33/25/4 36/23/4 40/23/4 37/25/4
f 35/24/2 34/26/2 38/26/2 39/24/2
f 36/23/3 35/24/3 39/24/3 40/23/3
f 39/24/6 38/26/6 42/29/6 41/30/6
f 38/26/6 37/25/6 43/27/6 42/29/6
f 37/25/6 40/23/6 44/28/6 43/27/6
f 40/23/6 39/24/6 41/30/6 44/28/6
f 48/27/5 47/28/5 65/28/5 66/27/5
f 44/28/3 41/30/3 46/30/3 47/28/3
f 42/29/1 43/27/1 48/27/1 45/29/1
f 41/30/2 42/29/2 45/29/2 46/30/2
f 50/30/6 49/29/6 52/27/6 51/28/6
f 50/30/6 51/28/6 56/28/6 55/30/6
f 52/27/6 49/29/6 64/29/6 63/27/6
f 50/30/3 46/30/3 58/30/3 60/30/3
f 54/28/3 53/30/3 55/30/3 56/28/3
f 46/30/2 50/30/2 55/30/2 53/30/2
f 47/28/5 46/30/5 53/30/5 54/28/5
f 51/28/4 47/28/4 54/28/4 56/28/4
f 58/30/2 57/29/2 59/29/2 60/30/2
f 49/29/6 50/30/6 60/30/6 59/29/6
f 45/29/1 49/29/1 59/29/1 57/29/1
f 46/30/5 45/29/5 57/29/5 58/30/5
f 62/29/1 61/27/1 63/27/1 64/29/1
f 49/29/2 45/29/2 62/29/2 64/29/2
f 45/29/5 48/27/5 61/27/5 62/29/5
f 48/27/4 52/27/4 63/27/4 61/27/4
f 66/27/4 65/28/4 67/28/4 68/27/4
f 47/28/3 51/28/3 67/28/3 65/28/3
f 52/27/1 48/27/1 66/27/1 68/27/1
f 51/28/6 52/27/6 68/27/6 67/28/6
